<svg width="581" height="544" viewBox="0 0 581 544" fill="none" xmlns="http://www.w3.org/2000/svg">
<path opacity="0.2" d="M325.014 291.667V277.669L304.8 265.997V251.999L284.586 240.315V226.329L264.384 214.656L177.039 262.299L199.726 275.332V289.33L219.94 300.991V315L240.154 326.661V340.671L328.701 468.636C416.386 453.833 483.323 409.185 511.569 351.481C514.836 344.811 517.743 338.092 520.292 331.324L325.014 291.667Z" fill="#25C269"/>
<path opacity="0.15" d="M200.51 18.7777C141.411 52.808 93.4961 144.009 93.4961 222.529C93.4961 269.184 110.421 300.867 136.601 311.756L147.411 305.517L253.7 244.161L264.782 237.763C290.77 196.87 307.57 145.881 307.57 99.3729C307.524 20.8762 259.621 -15.2186 200.51 18.7777Z" fill="#25C269"/>
<path opacity="0.15" d="M200.509 41.4861C150.848 70.0715 110.59 146.708 110.59 212.693C110.59 278.677 150.848 309.01 200.509 280.447C250.171 251.884 290.44 175.214 290.44 109.229C290.44 43.2443 250.182 12.9119 200.509 41.4861Z" fill="#25C269"/>
<path opacity="0.15" d="M200.511 57.4923C157.655 82.2437 122.91 148.626 122.91 205.762C122.91 262.899 157.655 289.182 200.511 264.442C243.366 239.702 278.111 173.309 278.111 116.161C278.111 59.0123 243.378 32.7296 200.511 57.4923Z" fill="#25C269"/>
<path d="M154.75 208.474C154.75 158.971 184.856 101.46 221.983 80.0093C238.352 70.5716 253.336 69.6982 264.986 75.9144L249.888 67.1799C238.091 60.3738 222.664 60.941 205.83 70.6737C168.68 92.1241 138.586 149.635 138.586 199.138C138.586 226.238 147.604 245.317 161.863 253.53C164.302 254.925 173.365 260.177 177.063 262.31C163.326 253.791 154.75 234.961 154.75 208.474Z" fill="#25C269"/>
<path opacity="0.3" d="M154.75 208.474C154.75 158.971 184.856 101.46 221.983 80.0093C238.352 70.5716 253.336 69.6982 264.986 75.9144L249.888 67.1799C238.091 60.3738 222.664 60.941 205.83 70.6737C168.68 92.1241 138.586 149.635 138.586 199.138C138.586 226.238 147.604 245.317 161.863 253.53C164.302 254.925 173.365 260.177 177.063 262.31C163.326 253.791 154.75 234.961 154.75 208.474Z" fill="white"/>
<path d="M248.404 90.3887C254.268 98.2156 257.41 110.671 256.707 126.869C255.017 166.571 230.867 213.805 202.78 232.284C194.25 237.899 186.321 240.224 179.492 239.6C188.022 250.944 202.315 252.566 218.945 241.619C247.042 223.141 271.193 175.941 272.883 136.194C274.04 108.538 264.035 91.7839 248.404 90.3887Z" fill="#25C269"/>
<path opacity="0.15" d="M248.404 90.3887C254.268 98.2156 257.41 110.671 256.707 126.869C255.017 166.571 230.867 213.805 202.78 232.284C194.25 237.899 186.321 240.224 179.492 239.6C188.022 250.944 202.315 252.566 218.945 241.619C247.042 223.141 271.193 175.941 272.883 136.194C274.04 108.538 264.035 91.7839 248.404 90.3887Z" fill="#474C48"/>
<path d="M171.879 102.549L188.043 111.885L189.336 110.149L173.172 100.791C172.73 101.392 172.31 101.925 171.879 102.549Z" fill="#25C269"/>
<path d="M164.461 156.612L148.24 147.299C148.013 147.923 147.798 148.569 147.582 149.205L163.746 158.54C163.973 157.882 164.177 157.236 164.461 156.612Z" fill="#25C269"/>
<path d="M238.191 63.0625L254.367 72.4322C255.025 72.5456 255.683 72.6591 256.33 72.7952L240.154 63.4595C239.507 63.2894 238.849 63.1646 238.191 63.0625Z" fill="#25C269"/>
<path d="M157.027 184.029C157.152 183.326 157.288 182.611 157.424 181.908L141.26 172.572C141.112 173.276 140.976 173.979 140.852 174.693L157.027 184.029Z" fill="#25C269"/>
<path d="M187.77 84.399L203.934 93.7347C204.49 93.2015 205.068 92.6684 205.613 92.1579L189.414 82.8223C188.881 83.3327 188.28 83.8659 187.77 84.399Z" fill="#25C269"/>
<path d="M157.11 230.695C156.962 230.071 156.826 229.436 156.69 228.8L156.565 228.517L140.48 219.227C140.628 219.953 140.775 220.667 140.946 221.37L157.11 230.695Z" fill="#25C269"/>
<path d="M224.091 63.4824C223.411 63.6185 222.708 63.8 222.016 63.9702L238.191 73.3058C238.895 73.1244 239.598 72.9655 240.29 72.8294L224.091 63.4824Z" fill="#25C269"/>
<path d="M222.989 79.4657L206.825 70.1641C206.485 70.3569 206.156 70.5157 205.827 70.7085L204.84 71.3097L221.004 80.6454L221.98 80.0442L222.989 79.4657Z" fill="#25C269"/>
<path d="M158.176 124.611L174.34 133.947L175.293 132.177L159.129 122.842C158.788 123.409 158.482 123.999 158.176 124.611Z" fill="#25C269"/>
<path d="M163.97 248.504C163.607 247.88 163.266 247.256 162.915 246.609L146.762 237.285C147.102 237.932 147.465 238.556 147.828 239.18L163.97 248.504Z" fill="#25C269"/>
<path d="M138.586 199.319L154.75 208.666V208.473C154.75 207.781 154.75 207.066 154.75 206.363L138.574 197.027C138.574 197.731 138.574 198.445 138.574 199.137L138.586 199.319Z" fill="#25C269"/>
<path d="M221.983 80.0083C184.856 101.459 154.75 158.97 154.75 208.473C154.75 257.976 184.856 280.742 221.983 259.303C259.11 237.864 289.238 180.352 289.238 130.838C289.238 81.3242 259.121 58.5692 221.983 80.0083ZM272.847 136.192C271.156 175.894 247.006 223.129 218.909 241.607C190.811 260.086 169.428 242.855 171.119 203.119C172.809 163.383 196.982 116.183 225.057 97.7041C253.132 79.2256 274.548 96.4563 272.847 136.192Z" fill="#25C269"/>
<g opacity="0.15">
<path d="M208.221 112.644C208.766 112.043 209.299 111.431 209.855 110.841L205.601 92.1582C205.034 92.6687 204.466 93.1905 203.922 93.7236L208.221 112.644Z" fill="#474C48"/>
<path d="M220.996 80.5988V100.631C221.654 100.121 222.312 99.6218 222.981 99.1453V79.4531L221.983 80.0089L220.996 80.5988Z" fill="#474C48"/>
<path d="M234.664 92.6694C235.39 92.3858 236.116 92.1249 236.831 91.898L240.234 72.8184C239.542 72.9545 238.838 73.1133 238.135 73.2834L234.664 92.6694Z" fill="#474C48"/>
<path d="M179.851 161.602L180.566 159.719L164.458 156.6C164.231 157.235 164.005 157.87 163.789 158.505L179.851 161.602Z" fill="#474C48"/>
<path d="M187.487 143.895L188.394 142.08L175.281 132.166L174.34 133.947L187.487 143.895Z" fill="#474C48"/>
<path d="M286.481 107.064L272.223 120.438C272.336 121.232 272.438 122.038 272.529 122.877L287.06 109.265C286.844 108.539 286.674 107.79 286.481 107.064Z" fill="#474C48"/>
<path d="M171.607 196.643L154.773 206.353C154.773 207.067 154.773 207.77 154.773 208.474V208.667L171.403 199.07C171.437 198.265 171.528 197.448 171.607 196.643Z" fill="#474C48"/>
<path d="M174.33 180.194C174.5 179.48 174.681 178.765 174.851 178.039L157.417 181.884C157.28 182.588 157.144 183.302 157.02 184.006L174.33 180.194Z" fill="#474C48"/>
<path d="M248.062 90.3767C248.754 90.4334 249.424 90.5128 250.082 90.6262L256.343 72.7376C255.685 72.6015 255.027 72.4767 254.358 72.3633L248.062 90.3767Z" fill="#474C48"/>
<path d="M267.844 105.261C268.161 105.93 268.468 106.633 268.763 107.348L280.446 91.6146C280.095 90.9794 279.72 90.3668 279.312 89.7656L267.844 105.261Z" fill="#474C48"/>
<path d="M259.586 94.7211C260.119 95.1294 260.641 95.5605 261.151 96.0256L269.954 79.1692C269.421 78.7495 268.888 78.3525 268.332 77.9668L259.586 94.7211Z" fill="#474C48"/>
<path d="M196.981 127.381L198.206 125.532L189.324 110.139L188.031 111.886L196.981 127.381Z" fill="#474C48"/>
<path d="M236.095 226.283C235.562 226.907 234.96 227.508 234.473 228.098L238.726 246.838C239.294 246.327 239.861 245.771 240.405 245.238L236.095 226.283Z" fill="#474C48"/>
<path d="M257.181 194.057C256.886 194.669 256.58 195.27 256.273 195.872L269.42 205.808L270.339 204.005L257.181 194.057Z" fill="#474C48"/>
<path d="M247.584 211.049L246.359 212.909L255.264 228.336C255.695 227.758 256.137 227.202 256.557 226.601L247.584 211.049Z" fill="#474C48"/>
<path d="M264.759 175.918C264.532 176.553 264.316 177.188 264.078 177.812L280.186 180.92C280.413 180.285 280.628 179.65 280.844 179.015L264.759 175.918Z" fill="#474C48"/>
<path d="M270.078 157.101C269.931 157.816 269.783 158.53 269.613 159.234L286.969 155.434C287.094 154.719 287.207 154.016 287.332 153.312L270.078 157.101Z" fill="#474C48"/>
<path d="M289.237 128.752L272.721 138.224C272.721 139.018 272.619 139.812 272.562 140.617L289.237 131.032V130.839C289.237 130.136 289.237 129.444 289.237 128.752Z" fill="#474C48"/>
<path d="M222.981 258.703V238.693C222.323 239.204 221.654 239.703 220.996 240.179V259.872L221.983 259.304C222.312 259.112 222.652 258.896 222.981 258.703Z" fill="#474C48"/>
<path d="M175.589 232.874C175.282 232.182 174.987 231.467 174.704 230.719L162.918 246.6C163.258 247.246 163.621 247.881 163.984 248.494L175.589 232.874Z" fill="#474C48"/>
<path d="M183.676 244.048C183.154 243.617 182.644 243.164 182.145 242.676L173.297 259.6C173.819 260.031 174.352 260.44 174.896 260.837L183.676 244.048Z" fill="#474C48"/>
<path d="M208.925 246.814C208.199 247.087 207.485 247.325 206.77 247.552L203.367 266.575C204.07 266.439 204.774 266.291 205.477 266.121L208.925 246.814Z" fill="#474C48"/>
<path d="M195.256 248.891C194.576 248.823 193.918 248.72 193.26 248.596L187.066 266.405C187.724 266.564 188.382 266.689 189.04 266.802L195.256 248.891Z" fill="#474C48"/>
<path d="M171.575 217.187C171.484 216.37 171.404 215.53 171.336 214.68L156.59 228.439C156.749 229.199 156.907 229.948 157.078 230.708L171.575 217.187Z" fill="#474C48"/>
</g>
<path d="M240.133 340.682L163.293 296.317V254.312L179.469 263.648L199.705 275.343V289.341L219.919 301.002V315.011L240.133 326.672V340.682Z" fill="#ECECEC"/>
<path d="M179.492 263.671L264.387 214.656L284.589 226.329L199.706 275.344L179.492 263.671Z" fill="#F9F9F9"/>
<path d="M199.703 275.343V289.341L284.586 240.326V226.328L199.703 275.343Z" fill="#ECECEC"/>
<path d="M199.703 289.341L284.586 240.326L304.8 251.999L219.917 301.002L199.703 289.341Z" fill="#F9F9F9"/>
<path d="M219.918 301.002V315.011L304.801 265.996V251.998L219.918 301.002Z" fill="#ECECEC"/>
<path d="M219.918 315.011L304.801 265.996L325.015 277.668L240.132 326.672L219.918 315.011Z" fill="#F9F9F9"/>
<path d="M240.133 326.672V340.681L325.016 291.666V277.668L240.133 326.672Z" fill="#ECECEC"/>
<path d="M264.439 131.419C262.749 171.121 238.588 218.355 210.501 236.845C200.065 243.708 190.56 245.647 182.801 243.322C174.86 236.073 170.323 222.189 171.117 203.143C172.818 163.441 196.98 116.207 225.055 97.7288C235.502 90.8547 245.031 88.9263 252.778 91.263C260.764 98.5228 265.256 112.362 264.439 131.419Z" fill="#25C269"/>
<path opacity="0.9" d="M264.439 131.419C262.749 171.121 238.588 218.355 210.501 236.845C200.065 243.708 190.56 245.647 182.801 243.322C174.86 236.073 170.323 222.189 171.117 203.143C172.818 163.441 196.98 116.207 225.055 97.7288C235.502 90.8547 245.031 88.9263 252.778 91.263C260.764 98.5228 265.256 112.362 264.439 131.419Z" fill="white"/>
<path opacity="0.1" d="M210.378 216.493C201.609 217.508 193.496 221.633 187.509 228.12C184.275 231.591 181.638 235.574 179.705 239.906C180.639 241.127 181.675 242.265 182.802 243.309C184.472 243.797 186.192 244.094 187.929 244.194C188.383 243.06 188.723 241.869 189.12 240.723C191.082 235.388 194.578 230.753 199.168 227.4C203.758 224.048 209.237 222.127 214.915 221.881C218.806 221.779 222.663 222.483 226.531 222.789C228.062 221.099 229.56 219.386 231.068 217.526C224.217 217.174 217.15 215.813 210.378 216.493ZM208.699 158.404C216.639 159.436 225.306 159.878 232.248 155.817C240.109 151.212 243.841 142.08 247.63 133.811C251.158 126.131 255.978 118.021 263.681 115.049C262.081 104.307 258.247 96.2188 252.768 91.2276C249.031 90.1522 245.092 89.9849 241.277 90.7399C237.434 95.1402 234.635 100.352 233.087 105.985C231.272 112.338 230.637 119.087 227.722 124.997C224.753 130.939 219.714 135.591 213.554 138.076C208.699 140.004 203.424 140.47 198.263 141.264C194.663 141.795 191.104 142.576 187.612 143.6C184.917 148.952 182.516 154.447 180.42 160.06C181.812 159.347 183.262 158.752 184.753 158.279C192.455 155.908 200.759 157.383 208.699 158.404ZM216.821 118.701C219.362 114.312 220.224 109.196 221.619 104.307C222.118 102.48 222.754 100.699 223.343 98.9185C221.528 100.197 219.729 101.588 217.944 103.093C215.38 109.32 212.885 115.571 208.155 120.267C205.743 122.629 202.865 124.46 199.704 125.644C199.106 125.843 198.491 125.984 197.866 126.063C196.709 127.765 195.575 129.504 194.463 131.281C197.022 131.076 199.558 130.643 202.04 129.988C208.186 128.144 213.447 124.118 216.832 118.667L216.821 118.701ZM264.463 125.587C262.245 126.737 260.235 128.251 258.519 130.068C254.3 134.696 252.031 140.696 249.445 146.414C245.837 154.558 241.13 162.85 233.292 167.07C228.074 169.872 221.948 170.575 216.084 170.734C204.91 171.04 193.567 169.6 182.643 171.993C180.289 172.507 177.987 173.24 175.769 174.182C175.013 176.897 174.351 179.601 173.784 182.293C176.328 180.946 179.019 179.9 181.804 179.173C197.945 175.09 215.834 184.051 231.295 178.039C242.639 173.604 249.547 162.34 255.116 151.518C257.385 147.105 259.824 142.443 263.737 139.517C264.04 136.817 264.252 134.14 264.373 131.486C264.52 129.387 264.543 127.447 264.509 125.553L264.463 125.587ZM224.194 191.708C215.46 192.025 206.737 191.209 198.002 191.084C193.527 190.84 189.041 191.3 184.708 192.445C180.914 193.728 177.347 195.6 174.136 197.992C173.149 198.695 172.196 199.421 171.254 200.159C171.186 201.168 171.118 202.167 171.073 203.153C170.585 214.667 172.048 224.275 175.032 231.694C176.96 230.02 178.674 228.115 180.136 226.022C186.137 217.911 191.922 208.939 201.019 204.594C210.786 199.932 222.3 201.599 232.917 199.467C237.562 198.518 242.024 196.829 246.132 194.464C247.811 191.318 249.395 188.112 250.885 184.845C250.432 185.117 249.966 185.378 249.501 185.639C241.822 189.848 232.963 191.356 224.24 191.674L224.194 191.708Z" fill="#25C269"/>
<path d="M316.617 114.123C316.617 117.98 315.891 121.406 311.172 122.234C316.004 122.438 316.344 125.637 316.617 130.106C316.776 125.671 317.195 122.438 321.574 122.234C317.059 121.485 316.617 117.98 316.617 114.123Z" fill="#25C269"/>
<path d="M206.519 319.451C206.519 323.308 205.793 326.734 201.074 327.562C205.907 327.766 206.247 330.965 206.519 335.434C206.678 330.987 207.098 327.766 211.476 327.562C206.939 326.802 206.519 323.308 206.519 319.451Z" fill="#25C269"/>
<path d="M171.046 200.617C171.046 202.307 170.729 203.793 168.664 204.156C170.774 204.247 170.933 205.665 171.046 207.559C171.114 205.62 171.296 204.156 173.213 204.156C171.228 203.827 171.046 202.307 171.046 200.617Z" fill="#25C269"/>
<path d="M161.769 207.254C161.769 211.099 161.032 214.525 156.324 215.353C161.157 215.557 161.497 218.756 161.769 223.237C161.917 218.79 162.336 215.569 166.726 215.353C162.189 214.661 161.769 211.099 161.769 207.254Z" fill="#ECECEC"/>
<path d="M157.345 187.924C157.345 189.909 156.971 191.656 154.555 192.087C157.028 192.189 157.209 193.845 157.345 196.125C157.425 193.856 157.64 192.189 159.897 192.087C157.561 191.701 157.345 189.909 157.345 187.924Z" fill="#ECECEC"/>
<path d="M303.515 102.531C303.515 104.8 303.459 106.955 300.203 107.466C303.606 107.466 303.379 109.587 303.549 112.309C303.64 109.587 303.878 107.636 306.567 107.511C303.788 107.046 303.867 105.764 303.515 102.531Z" fill="#ECECEC"/>
<path d="M331.807 207.514C331.569 211.767 331.228 213.605 327.383 214.116C331.296 214.331 331.625 216.929 331.852 220.547C331.977 216.929 332.295 214.297 335.868 214.116C332.192 213.526 332.102 211.824 331.807 207.514Z" fill="#ECECEC"/>
<path d="M190.887 319.486C190.751 321.971 190.559 323.037 188.312 323.343C190.581 323.468 190.785 324.965 190.921 327.075C190.99 324.965 191.171 323.434 193.258 323.343C191.148 322.98 191.058 322.005 190.887 319.486Z" fill="#ECECEC"/>
<path d="M323.773 110.176C323.773 111.548 323.773 112.864 321.766 113.17C323.853 113.17 323.694 114.452 323.796 116.097C323.853 114.452 323.989 113.273 325.611 113.193C323.932 112.91 323.978 112.138 323.773 110.176Z" fill="#ECECEC"/>
<path d="M328.051 219.879C328.051 221.24 328.051 222.556 326.043 222.862C328.119 222.862 327.96 224.155 328.062 225.8C328.119 224.155 328.266 222.964 329.888 222.896C328.21 222.601 328.255 221.83 328.051 219.879Z" fill="#ECECEC"/>
<path d="M201.355 314.074C201.355 315.435 201.355 316.751 199.348 317.058C201.435 317.058 201.276 318.339 201.378 319.984C201.435 318.339 201.582 317.16 203.204 317.08C201.548 316.808 201.594 316.025 201.355 314.074Z" fill="#ECECEC"/>
<path d="M443.668 270.212L479.388 249.59L533.315 280.716L559.19 265.777L505.274 234.65L522.788 224.532L494.43 208.141L476.916 218.259L445.653 200.234L419.767 215.185L450.996 233.255L384.398 271.641L405.236 283.665L573.324 328.79L576.59 326.907C578.194 320.464 579.521 313.888 580.572 307.18L443.668 270.212Z" fill="#F4F7F5"/>
<path d="M447.025 111.982L445.687 112.754V69.1723L429.511 59.8367L409.501 71.3843L426.006 9.33566L409.842 0L382.016 16.0623L337.051 184.195V208.3L353.215 217.635L403.682 188.483V205.85L419.858 215.185L445.653 200.235V164.208L463.156 154.101V121.318L447.025 111.982ZM403.682 137.04L389.991 144.981L403.682 93.4586V137.04Z" fill="#25C269"/>
<path opacity="0.3" d="M447.025 111.982L445.687 112.754V69.1723L429.511 59.8367L409.501 71.3843L426.006 9.33566L409.842 0L382.016 16.0623L337.051 184.195V208.3L353.215 217.635L403.682 188.483V205.85L419.858 215.185L445.653 200.235V164.208L463.156 154.101V121.318L447.025 111.982ZM403.682 137.04L389.991 144.981L403.682 93.4586V137.04Z" fill="black"/>
<path d="M445.675 131.425V69.1726L419.801 84.1119V146.376L384.069 166.998L426.006 9.33594L398.18 25.3983L353.215 193.531V217.59L419.801 179.159V215.185L445.675 200.235V164.208L463.19 154.101V121.318L445.675 131.425Z" fill="#25C269"/>
<path opacity="0.3" d="M445.675 131.425V69.1726L419.801 84.1119V146.376L384.069 166.998L426.006 9.33594L398.18 25.3983L353.215 193.531V217.59L419.801 179.159V215.185L445.675 200.235V164.208L463.19 154.101V121.318L445.675 131.425Z" fill="white"/>
<path d="M426.006 9.33565L409.841 0L382.016 16.0623L398.18 25.398L426.006 9.33565Z" fill="#25C269"/>
<path opacity="0.5" d="M426.006 9.33565L409.841 0L382.016 16.0623L398.18 25.398L426.006 9.33565Z" fill="white"/>
<path d="M429.513 59.8359L445.677 69.1716L419.803 84.1109L407.938 77.2595L409.503 71.3836L429.513 59.8359Z" fill="#25C269"/>
<path opacity="0.5" d="M429.513 59.8359L445.677 69.1716L419.803 84.1109L407.938 77.2595L409.503 71.3836L429.513 59.8359Z" fill="white"/>
<path d="M419.802 146.377L403.626 137.041L389.935 144.947L384.07 166.999L419.802 146.377Z" fill="#25C269"/>
<path opacity="0.5" d="M419.802 146.377L403.626 137.041L389.935 144.947L384.07 166.999L419.802 146.377Z" fill="white"/>
<path d="M463.19 121.318L447.026 111.982L445.676 112.754V131.425L463.19 121.318Z" fill="#25C269"/>
<path opacity="0.5" d="M445.676 131.425L463.19 121.318L447.026 111.982L445.676 112.754V131.425Z" fill="white"/>
<path d="M353.215 193.531L337.051 184.195L382.016 16.0625L398.181 25.3982L353.215 193.531Z" fill="#25C269"/>
<path opacity="0.15" d="M353.215 193.531L337.051 184.195L382.016 16.0625L398.181 25.3982L353.215 193.531Z" fill="black"/>
<path d="M185.738 438.913L157.346 422.522L139.843 432.629L108.637 414.615L82.7513 429.555L113.957 447.568L47.3711 486.011L68.209 498.046L236.308 543.171L264.133 527.108L106.618 484.593L142.35 463.959L196.265 495.097L222.151 480.146L168.224 449.02L185.738 438.913Z" fill="#F4F7F5"/>
<path d="M109.975 326.35L108.636 327.133V283.506L92.4604 274.171L72.4506 285.775L88.9553 223.726L72.7909 214.391L44.9654 230.43L0 398.574V422.634L16.2098 431.969L66.6314 402.862V420.217L82.7958 429.553L108.682 414.614V378.576L126.184 368.469V335.686L109.975 326.35ZM66.586 351.408L52.8945 359.348L66.586 307.872V351.408Z" fill="#25C269"/>
<path opacity="0.3" d="M109.975 326.35L108.636 327.133V283.506L92.4604 274.171L72.4506 285.775L88.9553 223.726L72.7909 214.391L44.9654 230.43L0 398.574V422.634L16.2098 431.969L66.6314 402.862V420.217L82.7958 429.553L108.682 414.614V378.576L126.184 368.469V335.686L109.975 326.35ZM66.586 351.408L52.8945 359.348L66.586 307.872V351.408Z" fill="black"/>
<path d="M108.636 345.806V283.542L82.7501 298.481V360.745L47.0182 381.368L88.9663 223.705L61.1408 239.767L16.1641 407.9V431.971L82.7501 393.528V429.555L108.636 414.615V378.577L126.139 368.47V335.688L108.636 345.806Z" fill="#25C269"/>
<path opacity="0.3" d="M108.636 345.806V283.542L82.7501 298.481V360.745L47.0182 381.368L88.9663 223.705L61.1408 239.767L16.1641 407.9V431.971L82.7501 393.528V429.555L108.636 414.615V378.577L126.139 368.47V335.688L108.636 345.806Z" fill="white"/>
<path d="M88.9661 223.705L72.7903 214.369L44.9648 230.431L61.1406 239.767L88.9661 223.705Z" fill="#25C269"/>
<path opacity="0.5" d="M88.9661 223.705L72.7903 214.369L44.9648 230.431L61.1406 239.767L88.9661 223.705Z" fill="white"/>
<path d="M92.462 274.205L108.638 283.541L82.752 298.48L70.8867 291.64L72.4521 285.764L92.462 274.205Z" fill="#25C269"/>
<path opacity="0.5" d="M92.462 274.205L108.638 283.541L82.752 298.48L70.8867 291.64L72.4521 285.764L92.462 274.205Z" fill="white"/>
<path d="M82.7514 360.746L66.587 351.41L52.8954 359.317L47.0195 381.368L82.7514 360.746Z" fill="#25C269"/>
<path opacity="0.5" d="M82.7514 360.746L66.587 351.41L52.8954 359.317L47.0195 381.368L82.7514 360.746Z" fill="white"/>
<path d="M126.14 335.687L109.975 326.352L108.637 327.134V345.806L126.14 335.687Z" fill="#25C269"/>
<path opacity="0.5" d="M108.637 345.806L126.14 335.687L109.975 326.352L108.637 327.134V345.806Z" fill="white"/>
<path d="M16.1644 407.9L0 398.576L44.9654 230.432L61.1412 239.767L16.1644 407.9Z" fill="#25C269"/>
<path opacity="0.15" d="M16.1644 407.9L0 398.576L44.9654 230.432L61.1412 239.767L16.1644 407.9Z" fill="black"/>
<path d="M392.788 403.665C388.264 401.601 383.477 400.17 378.563 399.412C375.556 398.913 372.486 398.94 369.488 399.491C367.354 399.927 365.286 400.644 363.34 401.624C356.67 404.936 355.706 408.622 355.49 411.742C355.275 414.861 356.999 419.036 362.512 422.892L457.128 489.172C474.349 479.997 490.355 468.702 504.77 455.55C463.661 436.448 396.576 405.287 392.788 403.665Z" fill="#ECECEC"/>
<path d="M423.062 264.176C428.87 265.31 431.139 265.707 433.918 270.517C436.697 275.326 441.416 293.204 442.709 296.913C444.002 300.622 444.388 301.972 443.844 306.101C443.288 310.412 440.747 318.068 439.681 322.266C439.182 324.205 438.853 326.1 438.49 328.085C437.988 330.116 437.343 332.11 436.561 334.051C436.226 334.998 435.642 335.837 434.871 336.479C434.395 336.899 433.737 336.944 433.283 337.33C432.829 337.715 432.704 338.396 432.069 338.714C431.434 339.031 430.549 338.85 429.925 339.213C429.31 339.664 428.67 340.08 428.008 340.46C427.399 340.638 426.842 340.961 426.386 341.402C425.978 341.844 425.592 342.843 424.855 342.763C424.117 342.684 423.902 341.89 423.868 341.209C423.894 339.874 424.347 338.582 425.161 337.522C425.885 336.343 426.676 335.207 427.532 334.119C428.365 333.111 428.962 331.929 429.279 330.66C429.54 329.809 429.46 328.731 428.36 329.219C427.078 329.809 425.717 331.034 424.174 330.762C423.108 330.58 423.04 329.741 423.664 329.038C424.69 327.878 425.63 326.646 426.477 325.351C427.339 324.024 428.054 322.629 428.95 321.335C429.434 320.663 429.96 320.023 430.526 319.418C432.092 317.717 432.024 315.391 432.205 313.225C432.455 310.219 432.67 302.505 432.67 302.505L425.637 285.184L423.062 264.176Z" fill="#FFBDA7"/>
<path d="M432.216 313.225C432.284 309.651 432.432 306.078 432.568 302.505C430.299 296.992 427.872 290.923 425.648 285.184C428.099 290.923 430.481 296.69 432.795 302.482C432.613 306.067 432.454 309.651 432.216 313.225Z" fill="white"/>
<path d="M383.851 398.697C385.847 397.994 387.333 397.926 387.311 398.913C387.04 400.129 386.609 401.304 386.029 402.407L384.441 404.596L383.681 406.751C383.681 406.751 382.75 407.885 382.694 407.999C382.637 408.112 382.331 403.972 382.331 403.972C382.331 403.972 381.208 399.208 383.851 398.697Z" fill="#F1F2F9"/>
<path d="M405.287 314.482C405.287 314.482 400.75 319.87 398.062 329.966C395.581 339.349 393.687 348.877 392.39 358.495C391.743 362.794 390.7 368.216 389.157 376.644C387.966 383.133 384.223 403.029 384.223 403.029C384.223 403.029 386.378 406.614 388.987 407.703C392.73 409.268 396.337 408.553 396.814 405.207C396.814 405.207 399.287 401.26 403.041 391.073C404.846 386.397 406.288 381.588 407.352 376.69C407.723 373.615 407.833 370.515 407.681 367.422L422.745 341.23C424.41 338.361 426.405 335.696 428.689 333.29C430.1 331.845 431.207 330.133 431.945 328.253C434.44 321.447 430.81 312.293 430.81 312.293L405.287 314.482Z" fill="#F1F2F9"/>
<path d="M392.445 358.484C390.017 373.401 387.238 388.261 384.277 403.075C386.886 388.193 389.677 373.344 392.445 358.484Z" fill="white"/>
<path d="M386.571 414.544L385.766 414.386C385.822 414.079 391.857 383.021 396.077 369.976C400.297 356.931 411.356 331.023 411.47 330.762L412.23 331.091C412.116 331.34 401.079 357.237 396.871 370.237C392.662 383.236 386.639 414.238 386.571 414.544Z" fill="black"/>
<path d="M425.116 323.207H400.375C399.47 325.404 398.712 327.659 398.107 329.956C395.82 338.595 394.058 347.365 392.832 356.216C393.433 360.266 394.114 364.429 394.738 367.288C396.405 374.842 397.449 380.174 398.765 383.293C400.035 385.93 401.534 388.451 403.245 390.825C405.007 386.244 406.414 381.534 407.454 376.737C407.825 373.662 407.935 370.562 407.783 367.469L422.529 341.89L423.584 337.863C427.248 331.771 426.828 327.2 425.116 323.207Z" fill="black"/>
<path d="M363.565 408.759C363.122 408.555 362.578 410.29 362.533 410.914C362.487 411.538 363.667 414.079 366.764 415.951C369.86 417.822 375.18 418.866 377.177 419.49C379.173 420.114 380.773 421.758 383.404 423.04C385.741 424.175 389.269 424.776 390.812 424.084C391.109 423.906 391.365 423.666 391.561 423.38C391.757 423.094 391.888 422.769 391.946 422.428C392.366 421.146 392.332 420.851 392.173 420.806L363.565 408.759Z" fill="#37474F"/>
<path d="M393.274 417.969C393.071 419.279 392.637 420.542 391.993 421.701C391.542 422.041 391.027 422.287 390.48 422.425C389.933 422.563 389.363 422.591 388.805 422.506C386.403 422.334 384.09 421.528 382.101 420.17C380.582 419.181 378.943 418.392 377.223 417.822C374.857 417.251 372.534 416.516 370.27 415.621C368.581 414.907 367.009 413.944 365.608 412.762C364.473 411.696 363.418 410.494 363.532 408.996C363.786 408.054 364.327 407.213 365.078 406.589C365.829 405.966 366.755 405.59 367.729 405.514C369.592 405.419 371.456 405.701 373.208 406.342C374.91 406.918 376.672 407.299 378.46 407.476C379.685 407.578 381.126 408.611 382.078 407.533C383.213 406.285 383.655 403.336 384.415 401.861C384.54 401.623 384.71 401.362 384.971 401.305C385.232 401.249 385.663 401.566 385.901 401.884C387.012 403.27 388.434 404.374 390.053 405.106C394.431 407.272 396.462 406.126 396.462 406.126L396.87 405.219C396.87 405.219 397.744 405.707 396.632 407.749C395.694 409.427 394.905 411.185 394.273 413.001C393.721 414.605 393.385 416.276 393.274 417.969Z" fill="#455A64"/>
<path d="M363.566 408.996C364.939 403.915 370.701 405.276 374.422 406.558C375.74 407.022 377.106 407.338 378.494 407.499C377.092 407.436 375.703 407.188 374.365 406.762C370.69 405.627 365.166 404.176 363.566 409.031V408.996Z" fill="white"/>
<path d="M374.023 406.57C372.151 406.74 371.641 409.769 371.641 409.769C373.317 410.669 375.143 411.261 377.029 411.516C378.34 411.743 379.69 411.472 380.812 410.757C381.935 410.041 382.75 408.933 383.098 407.648C383.892 405.118 383.166 401.579 383.018 400.433C382.932 400.04 383.002 399.628 383.214 399.285C383.426 398.942 383.762 398.695 384.152 398.596C383.831 398.626 383.52 398.721 383.237 398.877C382.955 399.033 382.707 399.245 382.511 399.5C382.314 399.756 382.172 400.049 382.093 400.362C382.014 400.674 382.001 401 382.054 401.318C382.111 402.679 382.054 405.368 381.475 406.264C380.897 407.16 378.004 407.557 374.023 406.57Z" fill="#455A64"/>
<path d="M420.919 314.483C423.644 317.703 425.238 321.727 425.457 325.94C425.644 330.032 424.36 334.055 421.838 337.283C420.896 351.077 418.174 377.632 418.174 377.632C421.815 381.375 422.711 383.802 424.867 390.518C426.149 394.601 430.958 407.726 432.149 411.378C425.774 412.161 422.303 418.502 422.303 418.502C422.303 418.502 411.073 401.918 405.674 392.163C401.669 384.948 399.82 382.316 398.629 378.051C397.155 372.731 396.758 369.986 395.442 361.036C394.126 352.086 392.867 340.697 392.22 331.872C391.574 323.047 391.086 313.723 391.086 313.723L420.919 314.483Z" fill="#F1F2F9"/>
<path d="M422.349 418.469C415.804 408.827 409.384 399.072 403.757 388.863C401.907 385.886 400.317 382.755 399.004 379.505C397.955 376.165 397.151 372.753 396.6 369.295C393.705 350.866 391.871 332.285 391.109 313.645L392.062 327.597C392.924 341.561 394.66 355.456 396.883 369.25C397.689 373.787 398.528 378.472 400.593 382.647C407.214 394.967 414.476 406.932 422.349 418.492V418.469Z" fill="white"/>
<path d="M406.478 381.932C403.177 373.515 399.218 327.699 399.422 311.863H398.594C398.526 317.161 398.923 325.793 399.604 335.265C396.915 333.904 395.18 331.408 395.18 318.862H394.352C394.352 331.476 395.996 334.527 399.672 336.218C401.056 354.98 403.528 376.68 405.706 382.249C408.939 390.485 425.807 418.31 425.966 418.548L426.68 418.117C426.51 417.868 409.688 390.11 406.478 381.932Z" fill="black"/>
<path d="M421.418 417.062C420.409 418.492 419.263 419.501 422.133 421.407C424.402 422.87 424.481 424.05 425.173 425.615C425.624 427.142 425.808 428.734 425.717 430.323C425.717 430.323 429.529 424.572 428.417 420.863C427.306 417.153 421.418 417.062 421.418 417.062Z" fill="#455A64"/>
<path d="M433.634 413.773C434.707 414.906 435.97 415.842 437.366 416.541C438.33 417.142 439.328 417.675 439.635 418.81C439.635 418.935 439.067 419.615 439.079 419.74C439.128 420.281 439.109 420.826 439.022 421.362C438.807 423.234 437.786 424.618 437.559 426.478C437.485 427.221 437.352 427.957 437.162 428.679C436.999 429.557 436.926 430.451 436.946 431.344C436.889 432.274 436.821 433.205 436.776 434.135C436.725 434.53 436.725 434.93 436.776 435.326C436.855 435.723 430.526 438.91 427.974 440.135C427.822 440.209 427.667 440.273 427.508 440.328C425.951 440.752 424.293 440.591 422.846 439.875C417.764 438.026 418.082 436.188 418.082 436.188C418.108 435.427 418.349 434.689 418.776 434.058C419.204 433.428 419.801 432.932 420.498 432.626C420.808 432.446 421.134 432.298 421.474 432.184C422.738 431.714 424.117 431.647 425.421 431.991C425.679 431.236 425.798 430.44 425.773 429.643C425.877 428.451 425.896 427.253 425.83 426.058C425.604 424.708 425.081 423.426 424.298 422.304C423.221 420.818 422.03 418.901 421.315 417.857C420.6 416.813 420.407 414.295 424.639 411.266C428.7 408.374 431.671 408.998 432.25 410.189C432.572 411.433 433.036 412.636 433.634 413.773Z" fill="#455A64"/>
<path d="M418.012 436.198C418.012 432.693 422.481 430.935 425.396 431.967C422.413 431.411 418.443 432.795 418.012 436.198Z" fill="white"/>
<path opacity="0.1" d="M422.711 433.805C423.05 432.939 423.691 432.226 424.515 431.797C424.813 431.831 425.109 431.888 425.399 431.967C424.889 432.455 423.063 433.181 422.711 433.805Z" fill="black"/>
<path d="M440.223 419.908C441.358 420.385 440.416 422.177 439.089 424.956C437.89 427.01 437.411 429.405 437.728 431.762C438 434.224 437.421 435.426 436.355 436.3C435.289 437.173 427.371 440.633 427.371 440.633C429.254 438.255 430.345 435.347 430.491 432.318C430.922 426.896 431.443 423.413 434.143 421.043C434.983 420.363 435.978 419.904 437.04 419.706C438.101 419.508 439.195 419.577 440.223 419.908Z" fill="black"/>
<path d="M418.015 436.187C418.14 437.254 421.169 439.409 424.742 439.363C428.315 439.318 428.621 438.558 429.177 434.372C429.733 430.187 430.119 424.367 431.934 421.895C433.749 419.422 436.131 417.924 439.613 418.832C440.01 419.025 441.088 420.102 440.691 421.1C440.691 421.1 440.691 420.306 439.262 419.887C438.036 419.535 436.573 419.569 434.531 421.339C432.138 423.392 431.605 428.236 431.332 432.387C431.06 436.539 429.767 440.52 426.33 440.895C424.846 441.096 423.337 440.97 421.907 440.528C420.476 440.085 419.16 439.335 418.049 438.331C417.834 437.634 417.823 436.891 418.015 436.187Z" fill="#37474F"/>
<path d="M397.526 238.131C397.063 237.479 396.778 236.718 396.699 235.922C396.619 235.127 396.748 234.324 397.073 233.593C397.651 232.119 398.854 230.565 402.359 228.75C406.533 226.595 417.99 225.052 423.662 232.55C424.479 233.684 413.203 254.84 413.759 259.23C410.832 256.156 401.179 245.345 401.179 245.345C398.91 244.37 397.504 243.542 397.016 241.386C396.84 240.275 397.018 239.135 397.526 238.131Z" fill="#F1F2F9"/>
<path d="M401.182 245.287C397.779 244.391 395.613 241.408 397.53 238.096C396.078 241.499 398.017 243.972 401.182 245.287Z" fill="white"/>
<path d="M397.527 238.13C396.097 236.565 396.449 234.047 397.527 232.368C398.778 230.739 400.448 229.48 402.359 228.727C401.488 229.228 400.647 229.781 399.841 230.383C397.47 232.028 395.7 235.487 397.572 238.13H397.527Z" fill="white"/>
<path d="M399.253 244.152C399.253 244.152 396.157 249.2 396.508 249.62C397.22 250.186 397.979 250.691 398.777 251.129L399.253 244.152Z" fill="#F0997A"/>
<path d="M399.254 244.152C398.482 245.774 397.552 247.306 396.792 248.917C396.69 249.177 396.475 249.484 396.622 249.665C396.817 249.89 397.047 250.081 397.303 250.232C396.996 250.062 396.486 249.926 396.418 249.518C397.042 247.577 398.002 245.761 399.254 244.152Z" fill="white"/>
<path d="M403.088 234.92C401.012 235.906 399.22 237.495 398.551 242.043C398.38 243.234 399.311 244.856 398.891 246.433C397.087 253.239 399.231 258.911 400.547 260.102C401.432 260.941 406.083 261.316 408.487 260.635C411.539 259.784 418.175 256.79 421.34 252.014C425.06 246.342 425.877 238.856 421.782 235.827C416.008 231.562 405.3 233.876 403.088 234.92Z" fill="#FFBDA7"/>
<path d="M398.573 242.043C398.573 243.586 399.481 245.094 398.959 246.671C397.995 251.061 397.926 256.279 400.569 260.102C397.666 256.404 397.666 251.027 398.777 246.626C399.299 245.128 398.437 243.597 398.573 242.088V242.043Z" fill="white"/>
<path d="M418.957 255.225L420.16 263.585C422.031 263.982 422.202 266.194 421.294 267.861L421.736 270.221L408.941 272.512L407.512 260.817L418.957 255.225Z" fill="#FFBDA7"/>
<path d="M400.816 260.271C401.951 260.873 404.276 261.315 407.52 260.861L407.328 259.205C406.298 259.591 405.24 259.895 404.163 260.113C403.061 260.331 401.934 260.384 400.816 260.271Z" fill="#F0997A"/>
<path d="M400.024 237.346C399.938 238.328 400.195 239.309 400.751 240.122C401.308 240.935 402.129 241.53 403.076 241.804C402.57 242.891 402.382 244.098 402.531 245.287C402.574 245.989 402.816 246.665 403.23 247.233C403.644 247.802 404.213 248.241 404.868 248.497C405.764 248.803 406.002 248.406 406.354 247.692C406.808 246.682 407.386 245.139 409.553 245.423C412.037 245.763 412.695 249.507 411.243 251.957C410.964 252.475 410.563 252.917 410.075 253.245C409.587 253.573 409.026 253.777 408.441 253.84C408.119 253.835 407.802 253.762 407.51 253.625C407.219 253.488 406.96 253.29 406.751 253.046C406.751 253.046 406.91 256.313 411.118 258.252C413.75 259.653 416.8 260.055 419.705 259.387C421.661 257.214 423.505 254.942 425.229 252.581C429.767 245.956 430.731 233.83 422.961 231.652C422.586 231.55 415.519 230.518 412.071 231.312C401.442 233.58 400.047 236.836 400.024 237.346Z" fill="#F1F2F9"/>
<path d="M419.206 230.802C418.267 231.479 417.621 232.49 417.403 233.627C417.305 234.194 417.359 234.776 417.558 235.316C417.757 235.855 418.095 236.333 418.537 236.701C420.806 238.482 424.345 236.406 424.765 233.774C425.241 230.666 421.498 229.101 419.206 230.802Z" fill="#25C269"/>
<path d="M421.055 231.789C418.73 233.218 417.278 236.587 418.514 239.014C418.854 239.672 419.331 240.262 419.648 240.954C420.545 243.166 419.24 245.605 418.956 247.976C418.762 249.857 419.088 251.756 419.898 253.466C420.669 254.725 422.371 255.043 423.052 256.359C423.517 257.266 423.199 258.378 423.38 259.387C423.777 261.554 426.341 262.597 428.553 262.643C429.488 262.726 430.43 262.602 431.312 262.28C432.194 261.959 432.995 261.448 433.658 260.783C434.165 259.995 434.718 259.237 435.314 258.514C436.63 257.277 438.717 257.379 440.169 256.245C440.706 255.771 441.126 255.18 441.398 254.517C441.669 253.854 441.784 253.137 441.734 252.422C441.6 250.99 441.216 249.593 440.6 248.293C439.658 246.025 440.407 244.561 440.883 242.259C441.107 241.015 440.901 239.732 440.299 238.621C439.697 237.51 438.735 236.637 437.571 236.145C435.972 235.509 434.021 235.611 432.727 234.466C432.114 233.74 431.539 232.982 431.003 232.197C428.576 229.531 423.789 230.121 421.055 231.789Z" fill="#F1F2F9"/>
<path d="M430.188 270.426C429.678 269.04 428.87 267.782 427.822 266.741C426.773 265.7 425.51 264.902 424.119 264.403C422.985 264.062 420.16 263.586 420.16 263.586C420.807 265.061 419.718 266.036 417.801 266.479C415.339 267.057 411.585 267.114 409.032 265.424L407.989 264.777C405.204 265.462 402.455 266.287 399.754 267.25C399.198 267.511 396.124 268.543 391.291 279.399C389.227 284.038 389.839 288.746 393.639 292.092C393.855 295.03 391.961 301.643 391.961 301.643C390.997 307.162 390.776 312.786 391.303 318.363C391.303 318.363 393.571 324.375 411.562 324.307C425.48 324.307 432.479 317.501 432.479 317.501C432.309 314.098 426.955 302.154 427.488 298.138C428.316 292.285 433.682 281.792 430.188 270.426Z" fill="#25C269"/>
<path d="M399.752 267.248C403.416 270.231 403.7 274.326 403.156 279.851C402.611 285.375 397.064 302.64 395.93 306.394C394.795 310.149 393.173 311.453 390.315 314.494C387.456 317.534 380.775 322.366 377.451 325.134C375.909 326.415 374.536 327.754 373.073 329.149C371.474 330.498 369.784 331.733 368.014 332.847C367.186 333.413 366.223 333.75 365.223 333.823C364.588 333.823 364.032 333.528 363.431 333.573C362.83 333.619 362.296 334.095 361.638 333.982C360.981 333.868 360.323 333.199 359.608 333.119C358.85 333.13 358.093 333.096 357.339 333.017C356.742 332.796 356.098 332.729 355.468 332.825C354.878 332.938 353.982 333.516 353.426 333.029C352.87 332.541 353.176 331.758 353.539 331.18C354.342 330.097 355.471 329.302 356.761 328.911C358.037 328.384 359.344 327.933 360.674 327.561C361.926 327.225 363.088 326.617 364.077 325.78C364.781 325.247 365.348 324.317 364.179 324.079C362.796 323.795 360.969 323.988 359.869 322.865C359.12 322.094 359.563 321.379 360.481 321.175C361.992 320.841 363.474 320.394 364.917 319.836C366.391 319.269 367.787 318.554 369.273 318.033C370.065 317.777 370.872 317.569 371.689 317.409C373.958 316.944 375.262 315.027 376.669 313.382C378.642 311.113 382.034 306.78 384.337 303.672L387.819 286.827C390.02 277.684 390.791 270.016 399.752 267.248Z" fill="#FFBDA7"/>
<path d="M403.13 279.851C402.245 284.842 401.029 289.768 399.489 294.598C399.376 294.995 399.251 295.38 399.137 295.732C397.742 300.462 396.392 304.727 395.893 306.383C394.872 309.786 393.432 311.193 391.038 313.689L390.278 314.483C387.295 317.647 380.738 322.355 377.415 325.134C375.883 326.416 374.499 327.743 373.048 329.138C371.445 330.49 369.751 331.73 367.977 332.848C367.148 333.41 366.185 333.742 365.187 333.812C364.551 333.869 363.995 333.517 363.394 333.562C362.793 333.608 362.26 334.084 361.602 333.971C360.944 333.857 360.286 333.188 359.572 333.12C358.814 333.127 358.056 333.089 357.303 333.006C356.704 332.79 356.061 332.724 355.431 332.814C355.25 332.814 355.034 332.938 354.807 333.018L354.524 333.109C354.396 333.156 354.262 333.187 354.127 333.199C354 333.225 353.869 333.222 353.743 333.19C353.618 333.159 353.501 333.1 353.401 333.018C352.777 332.473 353.14 331.759 353.503 331.18C354.305 330.097 355.434 329.301 356.724 328.911C358.001 328.38 359.307 327.926 360.638 327.55C361.889 327.214 363.051 326.606 364.041 325.769C364.744 325.236 365.311 324.317 364.143 324.068C362.759 323.784 360.933 323.977 359.844 322.865C359.084 322.083 359.526 321.368 360.445 321.164C361.955 320.832 363.438 320.384 364.88 319.825C366.355 319.258 367.761 318.544 369.236 318.033C370.026 317.769 370.833 317.561 371.652 317.409C373.921 316.944 375.225 315.016 376.632 313.382C378.606 311.114 381.998 306.769 384.312 303.661L387.783 286.816C389.983 277.628 390.789 269.96 399.716 267.203C400.638 267.95 401.408 268.866 401.985 269.903C403.505 272.58 403.539 275.835 403.13 279.851Z" fill="#FFBDA7"/>
<path d="M353.356 333.03C353.145 332.815 353.019 332.531 353.002 332.23C352.985 331.929 353.079 331.633 353.265 331.396C354.116 329.751 355.965 329.048 357.598 328.492C358.684 327.982 359.827 327.601 361.002 327.358C362.116 327.013 363.164 326.48 364.098 325.781C363.214 326.575 362.181 327.184 361.058 327.574C358.793 328.129 356.616 329 354.592 330.16C353.844 330.761 352.539 332.02 353.401 332.984L353.356 333.03Z" fill="white"/>
<path d="M359.868 322.91C358.461 321.3 361.184 321.095 362.205 320.755C364.904 320.063 367.286 318.577 369.941 317.829C371.302 317.62 372.604 317.129 373.764 316.388C375.613 314.925 377.598 311.987 379.129 310.138L384.234 303.638C385.368 297.966 387.171 289.13 388.521 283.367C389.962 276.561 392.174 269.29 399.751 267.248C392.287 269.369 390.109 276.595 388.726 283.412C387.364 289.266 385.731 297.83 384.449 303.831L379.299 310.319C377.722 312.179 375.783 315.061 373.866 316.569C372.69 317.313 371.373 317.804 369.998 318.01C367.343 318.747 364.927 320.199 362.227 320.846C361.195 321.175 358.495 321.322 359.868 322.944V322.91Z" fill="white"/>
<path opacity="0.3" d="M425.399 341.037C425.398 341.477 425.52 341.909 425.75 342.285C425.989 341.99 426.193 341.627 426.397 341.4C426.853 340.959 427.41 340.636 428.019 340.458C428.681 340.078 429.321 339.662 429.936 339.211C430.549 338.848 431.365 339.063 432.08 338.712C432.795 338.36 432.817 337.736 433.294 337.328C433.77 336.919 434.428 336.897 434.882 336.477C435.653 335.834 436.237 334.996 436.572 334.049C437.354 332.108 437.998 330.114 438.5 328.083C438.863 326.098 439.192 324.203 439.691 322.264C440.758 318.066 443.299 310.41 443.854 306.099C444.388 301.97 444.002 300.609 442.72 296.911C441.438 293.213 436.708 275.358 433.929 270.515C431.297 265.977 429.108 265.365 423.935 264.344L423.629 264.264L423.107 264.151L422.699 264.06L422.177 263.958L421.871 263.902L421.122 263.754L420.555 263.652H420.408H420.169L419.568 259.466H419.716C420.634 258.332 421.644 257.254 422.699 255.984C422.828 256.133 422.938 256.296 423.028 256.472C423.504 257.379 423.175 258.479 423.357 259.489C423.754 261.667 426.317 262.699 428.529 262.756C429.465 262.834 430.407 262.707 431.288 262.384C432.17 262.06 432.971 261.549 433.634 260.884C434.145 260.099 434.698 259.342 435.29 258.615C436.606 257.379 438.693 257.481 440.156 256.347C440.692 255.87 441.111 255.276 441.381 254.611C441.65 253.946 441.763 253.228 441.711 252.513C441.582 251.08 441.198 249.681 440.576 248.384C439.635 246.115 440.383 244.652 440.86 242.36C441.085 241.116 440.88 239.833 440.281 238.72C439.681 237.607 438.721 236.731 437.559 236.235C435.948 235.6 433.997 235.713 432.704 234.556C432.094 233.83 431.522 233.073 430.991 232.287C429.176 230.302 426.057 230.132 423.448 230.858C422.803 230.411 422.031 230.184 421.247 230.211C417.708 227.466 413.091 226.808 409.132 227.126C407.642 227.752 406.295 228.674 405.173 229.837C401.611 233.365 399.502 238.549 400.432 243.449C400.613 244.368 400.897 245.253 401.044 246.172C401.419 248.52 400.897 250.913 400.908 253.295C400.92 255.678 401.668 258.309 403.733 259.478C405.298 260.351 407.215 260.181 408.996 260.408C411.923 260.782 411.582 262.586 411.696 265.07C411.745 265.45 411.714 265.837 411.605 266.204C411.56 266.337 411.491 266.46 411.401 266.567C410.641 267.509 408.486 267.883 407.533 268.201C405.644 268.658 403.799 269.281 402.02 270.061C401.203 270.476 400.495 271.078 399.955 271.819C397.789 274.859 396.87 278.478 395.951 282.028C395.1 285.318 394.204 288.608 393.263 291.874C392.416 294.839 391.531 297.788 390.608 300.722C389.89 303.392 388.814 305.953 387.409 308.334C385.651 311.022 383.133 313.109 380.864 315.401C375.726 320.596 371.427 327.243 364.552 329.739C361.909 330.692 359.074 330.953 356.362 331.679C355.421 331.928 354.355 332.427 354.094 333.301C354.229 333.288 354.363 333.257 354.491 333.21L354.774 333.119C355.001 333.04 355.217 332.96 355.398 332.915C356.029 332.825 356.671 332.891 357.27 333.108C358.023 333.19 358.781 333.228 359.539 333.221C360.253 333.289 360.786 333.947 361.569 334.072C362.352 334.197 362.703 333.709 363.361 333.664C364.019 333.618 364.496 333.97 365.154 333.913C366.153 333.844 367.115 333.511 367.944 332.949C369.718 331.831 371.412 330.592 373.015 329.24C374.467 327.845 375.85 326.517 377.382 325.236C380.705 322.456 387.262 317.749 390.245 314.584L391.005 313.79C393.387 311.306 394.828 309.911 395.849 306.496C396.348 304.84 397.698 300.575 399.093 295.845L399.445 294.71C399.969 295.348 400.243 296.154 400.216 296.979C400.636 302.492 401.952 308.073 402.848 313.563C403.483 317.477 404.13 321.39 404.425 325.338C404.651 328.196 404.686 331.009 404.731 333.913L405.003 354.331C405.003 355.466 405.003 356.6 405.06 357.803C405.075 361.016 405.294 364.225 405.718 367.41C406.088 370.218 406.699 372.988 407.544 375.691C407.748 376.349 407.964 377.007 408.202 377.665C410.55 384.187 414.237 390.143 417.787 396.019C421.389 402.297 424.62 408.782 427.463 415.439C428.046 416.603 428.473 417.838 428.734 419.114C429.097 421.314 428.495 423.549 428.325 425.772C428.155 427.996 428.405 430.128 428.325 432.306C428.374 434.498 427.74 436.651 426.51 438.466C425.624 439.608 424.396 440.439 423.005 440.837C424.095 441.026 425.207 441.061 426.306 440.939C426.94 440.88 427.551 440.67 428.087 440.326C430.894 439.142 433.635 437.809 436.3 436.333C437.366 435.482 437.944 434.269 437.684 431.796C437.356 429.44 437.831 427.042 439.033 424.99C439.761 423.743 440.318 422.404 440.69 421.008C440.973 420.044 439.975 419.046 439.555 418.853C439.272 417.719 438.273 417.174 437.287 416.584C435.894 415.886 434.635 414.949 433.566 413.816C432.952 412.675 432.476 411.464 432.148 410.209C432.003 409.933 431.777 409.708 431.501 409.563C429.755 404.538 425.954 394.09 424.831 390.54C422.722 383.813 421.78 381.386 418.139 377.642C418.139 377.642 420.147 358.041 421.315 343.782L422.722 341.321C422.869 341.06 423.017 340.81 423.175 340.56C424.75 337.993 426.59 335.598 428.666 333.414C428.87 333.199 429.074 332.949 429.278 332.711C428.972 333.221 428.677 333.732 428.337 334.231C426.987 336.295 425.297 338.507 425.399 341.037ZM432.341 317.647L432.477 317.522C432.409 316.784 432.268 316.055 432.057 315.344C431.796 314.38 431.433 313.234 431.036 311.998C430.912 311.612 430.775 311.215 430.639 310.863C430.174 309.479 429.675 308.005 429.221 306.576C429.074 306.133 428.938 305.691 428.813 305.26C428.688 304.829 428.518 304.307 428.393 303.853C428.269 303.399 428.212 303.207 428.132 302.889C428.132 302.787 428.076 302.673 428.053 302.571C428.03 302.469 427.951 302.152 427.906 301.959C427.815 301.584 427.735 301.233 427.679 300.892L427.611 300.518C427.605 300.431 427.605 300.344 427.611 300.257C427.578 300.092 427.555 299.926 427.543 299.758V299.418C427.532 299.214 427.532 299.009 427.543 298.805C427.53 298.609 427.53 298.412 427.543 298.215C427.849 296.454 428.27 294.715 428.802 293.009C429.165 291.693 429.573 290.286 429.936 288.789C431.014 290.797 432.057 292.805 433.101 294.824C433.997 296.42 434.756 298.09 435.37 299.815C436.617 303.74 436.311 307.993 435.835 312.088C435.337 316.76 434.301 321.358 432.749 325.791C433.081 323.073 432.943 320.318 432.341 317.647Z" fill="black"/>
</svg>
