<svg width="22" height="22" viewBox="0 0 22 22" fill="none" xmlns="http://www.w3.org/2000/svg">
<g clip-path="url(#clip0_6026_25986)">
<path d="M12.1118 10.5618L1.47112 21.2025C0.962454 20.7213 0.6875 20.0614 0.6875 19.3466V2.65687C0.6875 1.92824 0.976202 1.26835 1.49861 0.773438L12.1118 10.5618Z" fill="#FBFFF8"/>
<path d="M21.3105 11.0019C21.3105 11.9642 20.7881 12.8166 19.922 13.2977L16.8975 14.975L13.1444 11.5105L12.1133 10.5619L16.0864 6.58887L19.922 8.70601C20.7881 9.18718 21.3105 10.0395 21.3105 11.0019Z" fill="#FFC107"/>
<path d="M12.1132 10.5619L1.5 0.773586C1.63748 0.636109 1.8162 0.51238 1.99492 0.402399C2.86102 -0.120014 3.90585 -0.133761 4.79945 0.361156L16.0863 6.58886L12.1132 10.5619Z" fill="#00A1FF"/>
<path d="M16.8976 14.9745L4.7996 21.6422C4.37342 21.8896 3.89225 21.9996 3.42483 21.9996C2.92991 21.9996 2.43499 21.8759 1.99507 21.6009C1.8026 21.4909 1.62388 21.3535 1.47266 21.2022L12.1134 10.5615L13.1444 11.5101L16.8976 14.9745Z" fill="#F44336"/>
</g>
<defs>
<clipPath id="clip0_6026_25986">
<rect width="22" height="22" fill="white"/>
</clipPath>
</defs>
</svg>
