<svg width="163" height="38" viewBox="0 0 163 38" fill="none" xmlns="http://www.w3.org/2000/svg">
<path d="M49.8172 21.3405C49.8172 22.5055 50.3294 23.6062 51.3537 24.6425C52.3781 25.6787 54.2107 26.1979 56.8517 26.2C59.0124 26.173 61.1704 26.0368 63.317 25.7919V28.8821C60.2166 29.3514 57.8581 29.5861 56.2415 29.5861C52.9977 29.5861 50.4295 28.744 48.5368 27.0597C46.6441 25.3755 45.6956 22.8835 45.6914 19.5836C45.6914 16.2837 46.604 13.8238 48.4293 12.204C50.2546 10.5842 52.573 9.77527 55.3847 9.77735C58.1964 9.77735 60.479 10.6194 62.2326 12.3037C63.9862 13.9879 64.8641 16.4145 64.8662 19.5836V20.2409C64.8662 20.9636 64.5216 21.328 63.8387 21.328L49.8172 21.3405ZM60.7562 18.1538C60.6605 16.841 60.1547 15.5896 59.3082 14.5714C58.4862 13.6224 57.1488 13.1468 55.2962 13.1447C53.4435 13.1427 52.064 13.6504 51.1577 14.668C50.2869 15.6255 49.809 16.8681 49.8172 18.1538H60.7562Z" fill="#030A05"/>
<path d="M80.6864 17.0837C80.6864 15.5697 80.3576 14.5314 79.7 13.9686C79.0424 13.4058 78.0939 13.1275 76.8546 13.1338C75.6068 13.1338 74.6584 13.3798 74.0092 13.872C73.36 14.3642 73.0312 15.4316 73.0228 17.0743V29.3695H68.957V16.9404C68.957 14.0932 69.6737 12.1837 71.1069 11.2118C72.5401 10.2399 74.3601 9.75391 76.5669 9.75391C79.5472 9.75391 81.5969 10.6604 82.7161 12.4734C83.8332 10.6604 85.8892 9.75391 88.8843 9.75391C91.0784 9.75391 92.8878 10.2399 94.3126 11.2118C95.7374 12.1837 96.4509 14.0932 96.453 16.9404V29.3695H92.4125V17.0837C92.4125 15.4431 92.0837 14.3756 91.4261 13.8814C90.7685 13.3871 89.8201 13.141 88.5807 13.1431C87.3309 13.1431 86.3824 13.4214 85.7353 13.9779C85.0883 14.5345 84.7595 15.5729 84.749 17.093V29.3882H80.6864V17.0837Z" fill="#030A05"/>
<path d="M106.034 4.35316C106.077 5.02667 105.867 5.69226 105.443 6.2222C105.048 6.65415 104.398 6.87013 103.492 6.87013C102.586 6.87013 101.928 6.65415 101.519 6.2222C101.094 5.69296 100.883 5.02685 100.928 4.35316C100.928 3.54947 101.125 2.94411 101.519 2.53708C101.913 2.13004 102.571 1.92237 103.492 1.91406C104.396 1.91406 105.046 2.12173 105.443 2.53708C105.85 2.93892 106.034 3.54324 106.034 4.35316ZM101.459 9.96028V29.3796H105.499V9.96028H101.459Z" fill="#030A05"/>
<path d="M110.371 1.43359H114.412V24.3885C114.412 25.5909 114.99 26.1921 116.147 26.1921H117.665V29.1826C116.768 29.4385 115.839 29.5696 114.905 29.572C111.882 29.572 110.371 28.2128 110.371 25.4944V1.43359Z" fill="#030A05"/>
<path d="M125.811 4.35316C125.856 5.02685 125.645 5.69296 125.22 6.2222C124.825 6.65415 124.175 6.87013 123.269 6.87013C122.363 6.87013 121.705 6.65415 121.296 6.2222C120.872 5.69226 120.661 5.02667 120.705 4.35316C120.705 3.54947 120.904 2.94515 121.296 2.53708C121.688 2.129 122.349 1.91406 123.269 1.91406C124.189 1.91406 124.824 2.11654 125.22 2.53708C125.615 2.95761 125.811 3.54324 125.811 4.35316ZM121.239 9.96028V29.3796H125.28V9.96028H121.239Z" fill="#030A05"/>
<path d="M136.566 21.3287C134.811 21.0543 133.134 20.4174 131.646 19.4597C130.281 18.5521 129.598 17.1929 129.598 15.382C129.598 13.4424 130.281 12.0188 131.646 11.1113C133.012 10.2038 135.12 9.75 137.969 9.75C140.416 9.78509 142.852 10.0648 145.241 10.5848V13.5566C142.098 13.2742 139.681 13.1319 137.988 13.1299C136.399 13.1299 135.276 13.3116 134.618 13.675C134.307 13.8338 134.049 14.0774 133.874 14.3767C133.699 14.676 133.615 15.0184 133.632 15.3634C133.632 16.0113 134.053 16.5305 134.896 16.9209C135.739 17.3113 137.123 17.6799 139.048 18.0267C140.806 18.2994 142.486 18.9364 143.976 19.8958C145.342 20.8012 146.025 22.1604 146.025 23.9734C146.025 25.9172 145.342 27.3418 143.976 28.2473C142.611 29.1527 140.503 29.6055 137.653 29.6055C135.077 29.5605 132.511 29.2811 129.987 28.7706V25.7833C133.388 26.0698 135.938 26.2121 137.634 26.21C139.221 26.21 140.345 26.0293 141.005 25.668C141.317 25.5054 141.576 25.2578 141.75 24.9547C141.924 24.6516 142.007 24.3057 141.988 23.9578C141.988 23.3348 141.561 22.8156 140.707 22.4003C139.854 21.985 138.473 21.6278 136.566 21.3287Z" fill="#030A05"/>
<path d="M148.938 13.3352V9.95844H151.783V4.51953H155.804V9.95844H162.725V13.3352H155.804V23.2193C155.804 25.2005 156.58 26.1911 158.131 26.1911H163V29.1815C161.172 29.4172 159.333 29.5514 157.489 29.5834C153.679 29.5834 151.774 27.8358 151.777 24.3407V13.3352H148.938Z" fill="#030A05"/>
<path d="M32.169 25.2548C27.7043 26.5698 22.9064 26.2376 18.6723 24.3203C18.1459 24.0592 17.7428 23.607 17.5478 23.059C17.3528 22.5109 17.3812 21.9097 17.6269 21.3819C17.8727 20.854 18.3166 20.4407 18.8654 20.2288C19.4142 20.0169 20.025 20.023 20.5692 20.2458C22.8889 21.2952 25.4473 21.7269 27.9891 21.4979C30.531 21.2688 32.9674 20.3871 35.0554 18.9406L35.242 18.8098C36.0899 18.2031 36.727 17.3533 37.0665 16.3766C37.406 15.3998 37.4313 14.3436 37.1389 13.3522V13.321C35.8134 8.96671 32.9228 5.23764 29.0081 2.83186C25.0934 0.426093 20.423 -0.491445 15.8712 0.25101C11.3194 0.993466 7.1982 3.34502 4.27918 6.86545C1.36016 10.3859 -0.156607 14.8339 0.0128014 19.3767C0.182209 23.9196 2.02618 28.2459 5.19954 31.5458C8.37289 34.8457 12.6581 36.8929 17.2529 37.3042C21.8477 37.7155 26.4372 36.4627 30.1622 33.7804C33.8872 31.0981 36.4923 27.17 37.4898 22.7316C35.8602 23.8402 34.065 24.6915 32.169 25.2548Z" fill="url(#paint0_linear_6026_26001)"/>
<defs>
<linearGradient id="paint0_linear_6026_26001" x1="28.4573" y1="2.49926" x2="9.91249" y2="35.1027" gradientUnits="userSpaceOnUse">
<stop stop-color="#9EF769"/>
<stop offset="1" stop-color="#3AD87E"/>
</linearGradient>
</defs>
</svg>
