<svg width="38" height="38" viewBox="0 0 38 38" fill="none" xmlns="http://www.w3.org/2000/svg">
<path d="M32.169 25.2548C27.7043 26.5698 22.9064 26.2376 18.6723 24.3203C18.1459 24.0592 17.7428 23.607 17.5478 23.059C17.3528 22.5109 17.3812 21.9097 17.6269 21.3819C17.8727 20.854 18.3166 20.4407 18.8654 20.2288C19.4142 20.0169 20.025 20.023 20.5692 20.2458C22.8889 21.2952 25.4473 21.7269 27.9891 21.4979C30.531 21.2688 32.9674 20.3871 35.0554 18.9406L35.242 18.8098C36.0899 18.2031 36.727 17.3533 37.0665 16.3766C37.406 15.3998 37.4313 14.3436 37.1389 13.3522V13.321C35.8134 8.96671 32.9228 5.23764 29.0081 2.83186C25.0934 0.426093 20.423 -0.491445 15.8712 0.25101C11.3194 0.993466 7.1982 3.34502 4.27918 6.86545C1.36016 10.3859 -0.156607 14.8339 0.0128014 19.3767C0.182209 23.9196 2.02618 28.2459 5.19954 31.5458C8.37289 34.8457 12.6581 36.8929 17.2529 37.3042C21.8477 37.7155 26.4372 36.4627 30.1622 33.7804C33.8872 31.0981 36.4923 27.17 37.4898 22.7316C35.8602 23.8402 34.065 24.6915 32.169 25.2548Z" fill="url(#paint0_linear_7769_31609)"/>
<defs>
<linearGradient id="paint0_linear_7769_31609" x1="28.4573" y1="2.49926" x2="9.91249" y2="35.1027" gradientUnits="userSpaceOnUse">
<stop stop-color="#9EF769"/>
<stop offset="1" stop-color="#3AD87E"/>
</linearGradient>
</defs>
</svg>
