<svg width="163" height="38" viewBox="0 0 163 38" fill="none" xmlns="http://www.w3.org/2000/svg">
<path d="M49.8172 21.6595C49.8172 22.8419 50.3294 23.959 51.3537 25.0107C52.3781 26.0625 54.2107 26.5894 56.8517 26.5915C59.0124 26.5641 61.1704 26.4259 63.317 26.1773V29.3136C60.2166 29.7899 57.8581 30.0281 56.2415 30.0281C52.9977 30.0281 50.4295 29.1734 48.5368 27.4641C46.6441 25.7547 45.6956 23.2255 45.6914 19.8764C45.6914 16.5272 46.604 14.0307 48.4293 12.3867C50.2546 10.7427 52.573 9.92172 55.3847 9.92383C58.1964 9.92383 60.479 10.7785 62.2326 12.4878C63.9862 14.1972 64.8641 16.66 64.8662 19.8764V20.5435C64.8662 21.2769 64.5216 21.6468 63.8387 21.6468L49.8172 21.6595ZM60.7562 18.4252C60.6605 17.0929 60.1547 15.8228 59.3082 14.7894C58.4862 13.8262 57.1488 13.3436 55.2962 13.3415C53.4435 13.3394 52.064 13.8547 51.1577 14.8875C50.2869 15.8592 49.809 17.1204 49.8172 18.4252H60.7562Z" fill="#FBFFF8"/>
<path d="M80.6864 17.3395C80.6864 15.803 80.3576 14.7491 79.7 14.178C79.0424 13.6068 78.0939 13.3243 76.8546 13.3307C75.6068 13.3307 74.6584 13.5804 74.0092 14.08C73.36 14.5795 73.0312 15.6628 73.0228 17.33V29.8086H68.957V17.1941C68.957 14.3044 69.6737 12.3664 71.1069 11.38C72.5401 10.3936 74.3601 9.90039 76.5669 9.90039C79.5472 9.90039 81.5969 10.8204 82.7161 12.6604C83.8332 10.8204 85.8892 9.90039 88.8843 9.90039C91.0784 9.90039 92.8878 10.3936 94.3126 11.38C95.7374 12.3664 96.4509 14.3044 96.453 17.1941V29.8086H92.4125V17.3395C92.4125 15.6744 92.0837 14.5911 91.4261 14.0894C90.7685 13.5878 89.8201 13.338 88.5807 13.3402C87.3309 13.3402 86.3824 13.6226 85.7353 14.1874C85.0883 14.7523 84.7595 15.8062 84.749 17.349V29.8276H80.6864V17.3395Z" fill="#FBFFF8"/>
<path d="M106.034 4.41884C106.077 5.1024 105.867 5.77793 105.443 6.31577C105.048 6.75417 104.398 6.97337 103.492 6.97337C102.586 6.97337 101.928 6.75417 101.519 6.31577C101.094 5.77864 100.883 5.10259 100.928 4.41884C100.928 3.60317 101.125 2.98878 101.519 2.57567C101.913 2.16256 102.571 1.95179 103.492 1.94336C104.396 1.94336 105.046 2.15413 105.443 2.57567C105.85 2.98351 106.034 3.59684 106.034 4.41884ZM101.459 10.1096V29.8187H105.499V10.1096H101.459Z" fill="#FBFFF8"/>
<path d="M110.371 1.45508H114.412V24.7525C114.412 25.9729 114.99 26.583 116.147 26.583H117.665V29.6181C116.768 29.8778 115.839 30.0108 114.905 30.0133C111.882 30.0133 110.371 28.6338 110.371 25.8748V1.45508Z" fill="#FBFFF8"/>
<path d="M125.811 4.41884C125.856 5.10259 125.645 5.77864 125.22 6.31577C124.825 6.75417 124.175 6.97337 123.269 6.97337C122.363 6.97337 121.705 6.75417 121.296 6.31577C120.872 5.77793 120.661 5.1024 120.705 4.41884C120.705 3.60317 120.904 2.98983 121.296 2.57567C121.688 2.16151 122.349 1.94336 123.269 1.94336C124.189 1.94336 124.824 2.14886 125.22 2.57567C125.615 3.00248 125.811 3.59684 125.811 4.41884ZM121.239 10.1096V29.8187H125.28V10.1096H121.239Z" fill="#FBFFF8"/>
<path d="M136.566 21.646C134.811 21.3675 133.134 20.7211 131.646 19.7491C130.281 18.828 129.598 17.4485 129.598 15.6106C129.598 13.642 130.281 12.1972 131.646 11.2761C133.012 10.3551 135.12 9.89453 137.969 9.89453C140.416 9.93015 142.852 10.214 145.241 10.7418V13.7579C142.098 13.4713 139.681 13.3269 137.988 13.3248C136.399 13.3248 135.276 13.5092 134.618 13.8781C134.307 14.0393 134.049 14.2865 133.874 14.5902C133.699 14.894 133.615 15.2416 133.632 15.5916C133.632 16.2492 134.053 16.7762 134.896 17.1724C135.739 17.5687 137.123 17.9428 139.048 18.2948C140.806 18.5715 142.486 19.218 143.976 20.1917C145.342 21.1106 146.025 22.4901 146.025 24.3301C146.025 26.3029 145.342 27.7488 143.976 28.6678C142.611 29.5868 140.503 30.0462 137.653 30.0462C135.077 30.0006 132.511 29.717 129.987 29.1989V26.167C133.388 26.4579 135.938 26.6022 137.634 26.6001C139.221 26.6001 140.345 26.4168 141.005 26.05C141.317 25.885 141.576 25.6337 141.75 25.3261C141.924 25.0185 142.007 24.6674 141.988 24.3143C141.988 23.682 141.561 23.1551 140.707 22.7336C139.854 22.312 138.473 21.9495 136.566 21.646Z" fill="#FBFFF8"/>
<path d="M148.938 13.5351V10.1079H151.783V4.58789H155.804V10.1079H162.725V13.5351H155.804V23.5666C155.804 25.5774 156.58 26.5827 158.131 26.5827H163V29.6178C161.172 29.8571 159.333 29.9932 157.489 30.0257C153.679 30.0257 151.774 28.252 151.777 24.7048V13.5351H148.938Z" fill="#FBFFF8"/>
<path d="M32.169 25.6316C27.7043 26.9662 22.9064 26.629 18.6723 24.6832C18.1459 24.4181 17.7428 23.9592 17.5478 23.403C17.3528 22.8468 17.3812 22.2366 17.6269 21.7009C17.8727 21.1652 18.3166 20.7457 18.8654 20.5306C19.4142 20.3155 20.025 20.3217 20.5692 20.5479C22.8889 21.6129 25.4473 22.051 27.9891 21.8186C30.531 21.5862 32.9674 20.6913 35.0554 19.2232L35.242 19.0904C36.0899 18.4747 36.727 17.6123 37.0665 16.6209C37.406 15.6296 37.4313 14.5576 37.1389 13.5514V13.5198C35.8134 9.10049 32.9228 5.31578 29.0081 2.87412C25.0934 0.432451 20.423 -0.498778 15.8712 0.254755C11.3194 1.00829 7.1982 3.39492 4.27918 6.96789C1.36016 10.5408 -0.156607 15.0552 0.0128014 19.6658C0.182209 24.2765 2.02618 28.6673 5.19954 32.0164C8.37289 35.3656 12.6581 37.4433 17.2529 37.8608C21.8477 38.2782 26.4372 37.0068 30.1622 34.2844C33.8872 31.562 36.4923 27.5754 37.4898 23.0708C35.8602 24.1959 34.065 25.0599 32.169 25.6316Z" fill="url(#paint0_linear_7989_8711)"/>
<defs>
<linearGradient id="paint0_linear_7989_8711" x1="28.4573" y1="2.53655" x2="9.49435" y2="35.385" gradientUnits="userSpaceOnUse">
<stop stop-color="#9EF769"/>
<stop offset="1" stop-color="#3AD87E"/>
</linearGradient>
</defs>
</svg>
