<svg width="19" height="19" viewBox="0 0 19 19" fill="none" xmlns="http://www.w3.org/2000/svg">
<path d="M13.6529 1.17383L16.8045 4.45911V16.9523H5.03125V16.993H16.8447V4.50046L13.6529 1.17383Z" fill="#909090"/>
<path d="M13.611 1.13281H4.98828V16.952H16.8017V4.45945L13.6105 1.13281" fill="#F4F4F4"/>
<path d="M4.90073 1.98242H1.28125V5.84943H12.6665V1.98242H4.90073Z" fill="#7A7B7C"/>
<path d="M12.7277 5.7839H1.35547V1.91406H12.7277V5.7839Z" fill="#DD2025"/>
<path d="M5.12704 2.56912H4.38672V5.28798H4.96901V4.37093L5.09759 4.3783C5.22252 4.37615 5.34629 4.35377 5.46407 4.31202C5.56733 4.27651 5.66232 4.22044 5.74332 4.14719C5.82573 4.07742 5.89071 3.98936 5.93307 3.89003C5.98988 3.72492 6.01017 3.54944 5.99254 3.37572C5.98901 3.25162 5.96725 3.12871 5.92797 3.01094C5.89221 2.92592 5.83915 2.84928 5.77215 2.78589C5.70516 2.7225 5.6257 2.67376 5.53883 2.64276C5.46373 2.61557 5.38613 2.59584 5.30717 2.58385C5.24736 2.57462 5.18698 2.5697 5.12647 2.56912H5.12704ZM5.01942 3.86851H4.96901V3.0302H5.07833C5.12658 3.02672 5.17499 3.03412 5.21999 3.05187C5.26499 3.06961 5.30543 3.09725 5.33832 3.13272C5.40647 3.22392 5.44288 3.33494 5.44198 3.44879C5.44198 3.58813 5.44198 3.71444 5.31623 3.80337C5.22564 3.8532 5.12252 3.87563 5.01942 3.86794V3.86851ZM7.09878 2.56176C7.03591 2.56176 6.97473 2.56629 6.93168 2.56799L6.79687 2.57139H6.35506V5.29025H6.87504C7.07376 5.29569 7.27161 5.26201 7.45733 5.19112C7.60682 5.13183 7.73919 5.03625 7.8425 4.913C7.94296 4.78865 8.01507 4.64386 8.05378 4.48875C8.09828 4.31308 8.11998 4.13242 8.11835 3.95121C8.12934 3.73719 8.11278 3.52264 8.06907 3.31284C8.0276 3.15841 7.94993 3.01609 7.8425 2.89765C7.75821 2.80202 7.65503 2.72487 7.53946 2.67108C7.44021 2.62515 7.33581 2.5913 7.22849 2.57026C7.18582 2.56321 7.1426 2.55998 7.09935 2.56063L7.09878 2.56176ZM6.99626 4.79066H6.93961V3.05512H6.94698C7.06375 3.04168 7.1819 3.06275 7.28683 3.11573C7.36368 3.17709 7.42629 3.25439 7.47036 3.3423C7.51791 3.43482 7.54532 3.53636 7.55079 3.64024C7.55589 3.76485 7.55079 3.86681 7.55079 3.95121C7.5531 4.04843 7.54684 4.14566 7.5321 4.24179C7.51464 4.34048 7.48237 4.43596 7.43637 4.525C7.38431 4.60779 7.31397 4.67754 7.23076 4.72892C7.16087 4.77412 7.07812 4.7952 6.99512 4.78896L6.99626 4.79066ZM9.87258 2.57139H8.49616V5.29025H9.07845V4.21177H9.8148V3.70651H9.07845V3.07664H9.87145V2.57139" fill="#464648"/>
<path d="M12.337 11.4733C12.337 11.4733 14.1428 11.1459 14.1428 11.7627C14.1428 12.3796 13.0241 12.1286 12.337 11.4733ZM11.002 11.5203C10.7151 11.5837 10.4355 11.6765 10.1676 11.7973L10.3942 11.2875C10.6207 10.7777 10.8558 10.0827 10.8558 10.0827C11.1262 10.5377 11.4407 10.965 11.795 11.3583C11.5278 11.3981 11.2631 11.4526 11.002 11.5214V11.5203ZM10.2871 7.83851C10.2871 7.30097 10.461 7.15427 10.5964 7.15427C10.7318 7.15427 10.8841 7.21941 10.8892 7.68614C10.8451 8.15547 10.7469 8.6181 10.5964 9.06483C10.3903 8.68976 10.2836 8.26817 10.2866 7.84021L10.2871 7.83851ZM7.65379 13.7951C7.09983 13.4637 8.81554 12.4436 9.12651 12.4107C9.12481 12.4113 8.23382 14.1417 7.65379 13.7951ZM14.6701 11.8358C14.6645 11.7792 14.6135 11.1521 13.4976 11.1787C13.0325 11.1712 12.5676 11.204 12.1082 11.2767C11.6631 10.8284 11.2799 10.3226 10.9685 9.77287C11.1647 9.20611 11.2834 8.61547 11.3214 8.01694C11.305 7.33722 11.1424 6.94752 10.6213 6.95319C10.1002 6.95885 10.0243 7.41483 10.0928 8.09341C10.16 8.54941 10.2866 8.99464 10.4695 9.41772C10.4695 9.41772 10.2288 10.1671 9.91044 10.9125C9.59211 11.6579 9.3746 12.0488 9.3746 12.0488C8.82105 12.229 8.29994 12.4967 7.83109 12.8418C7.36435 13.2762 7.17459 13.6099 7.42042 13.9435C7.63227 14.2312 8.37372 14.2964 9.03645 13.428C9.38857 12.9795 9.71027 12.508 9.99937 12.0165C9.99937 12.0165 11.0099 11.7395 11.3243 11.6636C11.6386 11.5877 12.0187 11.5277 12.0187 11.5277C12.0187 11.5277 12.9414 12.456 13.8313 12.4232C14.7211 12.3903 14.6781 11.8913 14.6724 11.8369" fill="#DD2025"/>
<path d="M13.5664 1.17578V4.50242H16.7571L13.5664 1.17578Z" fill="#909090"/>
<path d="M13.6133 1.13281V4.45945H16.804L13.6133 1.13281Z" fill="#F4F4F4"/>
<path d="M5.08407 2.5242H4.34375V5.24306H4.9283V4.32658L5.05745 4.33394C5.18239 4.33179 5.30615 4.30941 5.42393 4.26767C5.52718 4.23214 5.62218 4.17607 5.70318 4.10284C5.78497 4.03288 5.84936 3.94483 5.89123 3.84568C5.94804 3.68056 5.96833 3.50509 5.95071 3.33136C5.94717 3.20726 5.92541 3.08436 5.88613 2.96658C5.85038 2.88157 5.79731 2.80492 5.73032 2.74154C5.66332 2.67815 5.58386 2.6294 5.497 2.5984C5.42155 2.57095 5.34357 2.55103 5.2642 2.53893C5.2044 2.5297 5.14401 2.52478 5.08351 2.5242H5.08407ZM4.97645 3.82359H4.92604V2.98527H5.03593C5.08417 2.9818 5.13259 2.9892 5.17759 3.00695C5.22259 3.02469 5.26303 3.05232 5.29592 3.0878C5.36407 3.179 5.40048 3.29001 5.39957 3.40387C5.39957 3.54321 5.39957 3.66952 5.27383 3.75845C5.18324 3.80827 5.08012 3.83071 4.97702 3.82302L4.97645 3.82359ZM7.05581 2.51684C6.99294 2.51684 6.93176 2.52137 6.88871 2.52307L6.7556 2.52647H6.31379V5.24532H6.83377C7.03249 5.25077 7.23034 5.21709 7.41606 5.1462C7.56555 5.08691 7.69792 4.99133 7.80123 4.86808C7.90169 4.74373 7.9738 4.59894 8.01251 4.44383C8.05701 4.26816 8.07871 4.0875 8.07708 3.90629C8.08807 3.69227 8.07151 3.47772 8.0278 3.26792C7.98633 3.11349 7.90866 2.97117 7.80123 2.85273C7.71694 2.7571 7.61376 2.67995 7.49819 2.62616C7.39894 2.58023 7.29454 2.54638 7.18722 2.52533C7.14455 2.51828 7.10133 2.51506 7.05808 2.51571L7.05581 2.51684ZM6.95499 4.74573H6.89834V3.0102H6.90571C7.02248 2.99676 7.14063 3.01783 7.24556 3.07081C7.32241 3.13216 7.38502 3.20947 7.42909 3.29738C7.47664 3.38989 7.50405 3.49144 7.50952 3.59532C7.51462 3.71993 7.50952 3.82189 7.50952 3.90629C7.51183 4.00351 7.50557 4.10074 7.49083 4.19687C7.47337 4.29555 7.4411 4.39104 7.3951 4.48008C7.34304 4.56287 7.2727 4.63262 7.18949 4.68399C7.1196 4.72919 7.03685 4.75028 6.95385 4.74404L6.95499 4.74573ZM9.82961 2.52647H8.45319V5.24532H9.03548V4.16684H9.77183V3.66159H9.03548V3.03172H9.82848V2.52647" fill="white"/>
</svg>
